<svg xmlns="http://www.w3.org/2000/svg" xmlns:xlink="http://www.w3.org/1999/xlink" width="238" height="238" viewBox="0 0 238 238">
  <defs>
    <clipPath id="clip-logo">
      <rect width="238" height="238"/>
    </clipPath>
  </defs>
  <g id="logo" clip-path="url(#clip-logo)">
    <rect width="238" height="238" fill="rgba(255,255,255,0)"/>
    <path id="Path_1" data-name="Path 1" d="M98.1,130.176V91.029L75.228,77.822l58.485-32.308L197.15,77.822l-9.2,5.188s4.009,5.9,4.009,6.839,4.009,3.066,2.83,8.49,8.726,8.961,8.726,8.961l-18.63,8.018,3.066-12.735s-4.009-4.009-3.066-8.961-3.537-7.546-3.537-7.546l-8.49,3.773V127.8l-7.02,2.379L155.766,132.5l-11.229,2.229-9.743.578H109.951l-2.9-1.073L102.922,133Z" transform="translate(4 -2)" fill="#5eca52" stroke="#5eca52" stroke-width="1"/>
    <path id="Path_2" data-name="Path 2" d="M39.864,48.616s-.363,8.345,0,8.707,5.986,8.345,7.8,10.159,7.8,7.8,10.34,9.07,11.973,7.8,12.7,7.8,11.247,7.256,11.973,7.8,8.889,7.982,9.07,9.977,3.447,4.9,3.265,9.07-1.633,17.959-1.633,17.959-15.782-6.531-16.871-7.8S50.566,103.582,50.748,99.772s-1.27,0-1.27,0,6.168,11.973,6.531,11.428,15.419,16.871,17.959,17.052,19.954,12.154,29.206,12.88,35.555-1.27,35.555-1.27l33.016-8.526s-25.759,18.5-33.016,16.871-12.044,7.327-22.384,5.331a14.431,14.431,0,0,0-2.024,0c-1.533.238-3.838.143-5.337.378-3.913.6-5.814,1.05-10.708.277-6.893-1.088-36.1-4.718-40.818-13.244l-.237-.14-1.18-.7L53.8,138.593l-1.272-.752-1.012-.809c-.416-.1-.638-.452-1.359-1.127a3.637,3.637,0,0,0-1.243-.752h0a16.138,16.138,0,0,1-3.122-2.226,30.622,30.622,0,0,1-5.929-5.944C28.617,112.652,26.621,99.228,26.621,98.14S28.072,72.38,29.161,72.2,39.864,48.616,39.864,48.616Z" transform="translate(4 -2)" fill="#2ca04a" stroke="#2ca04a" stroke-width="1"/>
    <text id="BPC_Scholarship" data-name="BPC Scholarship" transform="translate(15 186)" fill="#707070" font-size="30" font-family="SegoeUI, Segoe UI"><tspan x="0" y="0">BPC Scholarship</tspan></text>
  </g>
</svg>
